<mxfile host="app.diagrams.net" modified="2024-04-14T01:40:30.887Z" agent="Mozilla/5.0 (Windows NT 10.0; Win64; x64) AppleWebKit/537.36 (KHTML, like Gecko) Chrome/123.0.0.0 Safari/537.36" etag="oTIs2dhYgtwUbnKd_WBs" version="24.2.5" type="device">
  <diagram id="C5RBs43oDa-KdzZeNtuy" name="Page-1">
    <mxGraphModel dx="1462" dy="370" grid="1" gridSize="10" guides="1" tooltips="1" connect="1" arrows="1" fold="1" page="1" pageScale="1" pageWidth="827" pageHeight="1169" math="0" shadow="0">
      <root>
        <mxCell id="WIyWlLk6GJQsqaUBKTNV-0" />
        <mxCell id="WIyWlLk6GJQsqaUBKTNV-1" parent="WIyWlLk6GJQsqaUBKTNV-0" />
        <mxCell id="0IdplM3Vo_soKw5aqV4b-0" value="Class Game" style="swimlane;fontStyle=1;align=center;verticalAlign=top;childLayout=stackLayout;horizontal=1;startSize=26;horizontalStack=0;resizeParent=1;resizeParentMax=0;resizeLast=0;collapsible=1;marginBottom=0;whiteSpace=wrap;html=1;" parent="WIyWlLk6GJQsqaUBKTNV-1" vertex="1">
          <mxGeometry x="-110" y="180" width="280" height="200" as="geometry" />
        </mxCell>
        <mxCell id="0IdplM3Vo_soKw5aqV4b-1" value="- p1_: Player&lt;div&gt;- p1_: Player&lt;br&gt;&lt;/div&gt;&lt;div&gt;&lt;br&gt;&lt;/div&gt;" style="text;strokeColor=none;fillColor=none;align=left;verticalAlign=top;spacingLeft=4;spacingRight=4;overflow=hidden;rotatable=0;points=[[0,0.5],[1,0.5]];portConstraint=eastwest;whiteSpace=wrap;html=1;" parent="0IdplM3Vo_soKw5aqV4b-0" vertex="1">
          <mxGeometry y="26" width="280" height="174" as="geometry" />
        </mxCell>
        <mxCell id="0IdplM3Vo_soKw5aqV4b-2" value="" style="line;strokeWidth=1;fillColor=none;align=left;verticalAlign=middle;spacingTop=-1;spacingLeft=3;spacingRight=3;rotatable=0;labelPosition=right;points=[];portConstraint=eastwest;strokeColor=inherit;" parent="WIyWlLk6GJQsqaUBKTNV-1" vertex="1">
          <mxGeometry x="-110" y="250" width="280" height="9" as="geometry" />
        </mxCell>
        <mxCell id="0IdplM3Vo_soKw5aqV4b-3" value="+ Game (&lt;b&gt;in&lt;/b&gt; name1:string, &lt;b&gt;in&lt;/b&gt; name2:string): void&lt;div&gt;+ Hand (&lt;b&gt;in&lt;/b&gt; player:bool): void&lt;/div&gt;&lt;div&gt;+ Auto (&lt;b&gt;in&lt;/b&gt; player: bool): void&lt;/div&gt;&lt;div&gt;+ Move (&lt;b&gt;in&lt;/b&gt; player: bool): void&lt;/div&gt;&lt;div&gt;+ Move_Auto(&lt;b&gt;in&lt;/b&gt; difficult: int): void&lt;/div&gt;&lt;div&gt;+ P1 (&lt;b&gt;out&lt;/b&gt; p1_: player): Player&lt;/div&gt;&lt;div&gt;+ P2 (&lt;b style=&quot;background-color: initial;&quot;&gt;out&lt;/b&gt;&lt;span style=&quot;background-color: initial;&quot;&gt;&amp;nbsp;&lt;/span&gt;&lt;span style=&quot;background-color: initial;&quot;&gt;p2_: player): Player&lt;/span&gt;&lt;/div&gt;&lt;div&gt;&lt;span style=&quot;background-color: initial;&quot;&gt;+ Print_Final (): void&lt;/span&gt;&lt;/div&gt;" style="text;strokeColor=none;fillColor=none;align=left;verticalAlign=top;spacingLeft=4;spacingRight=4;overflow=hidden;rotatable=0;points=[[0,0.5],[1,0.5]];portConstraint=eastwest;whiteSpace=wrap;html=1;" parent="WIyWlLk6GJQsqaUBKTNV-1" vertex="1">
          <mxGeometry x="-110" y="250" width="270" height="120" as="geometry" />
        </mxCell>
        <mxCell id="0IdplM3Vo_soKw5aqV4b-19" value="&lt;p style=&quot;margin:0px;margin-top:4px;text-align:center;&quot;&gt;&lt;i&gt;&amp;lt;&amp;lt;Interface&amp;gt;&amp;gt;&lt;/i&gt;&lt;br&gt;&lt;b&gt;Viewer&lt;/b&gt;&lt;/p&gt;&lt;hr size=&quot;1&quot; style=&quot;border-style:solid;&quot;&gt;&lt;p style=&quot;margin:0px;margin-left:4px;&quot;&gt;+ Print_Player_Active (&lt;b&gt;in&lt;/b&gt; p: player, &lt;b&gt;in&lt;/b&gt; coord): void&lt;br&gt;+ Print_Player_Passive&amp;nbsp;&lt;span style=&quot;background-color: initial;&quot;&gt;(&lt;/span&gt;&lt;b style=&quot;background-color: initial;&quot;&gt;in&lt;/b&gt;&lt;span style=&quot;background-color: initial;&quot;&gt;&amp;nbsp;&lt;/span&gt;&lt;span style=&quot;background-color: initial;&quot;&gt;p: player,&lt;/span&gt;&lt;span style=&quot;background-color: initial;&quot;&gt;&amp;nbsp;&lt;/span&gt;&lt;b style=&quot;background-color: initial;&quot;&gt;in&lt;/b&gt;&lt;span style=&quot;background-color: initial;&quot;&gt;&amp;nbsp;&lt;/span&gt;&lt;span style=&quot;background-color: initial;&quot;&gt;coord): void&lt;/span&gt;&lt;/p&gt;&lt;hr size=&quot;1&quot; style=&quot;border-style:solid;&quot;&gt;&lt;p style=&quot;margin:0px;margin-left:4px;&quot;&gt;+ method1(Type): Type&lt;br&gt;+ method2(Type, Type): Type&lt;/p&gt;" style="verticalAlign=top;align=left;overflow=fill;html=1;whiteSpace=wrap;" parent="WIyWlLk6GJQsqaUBKTNV-1" vertex="1">
          <mxGeometry x="-130" y="20" width="300" height="80" as="geometry" />
        </mxCell>
        <mxCell id="0IdplM3Vo_soKw5aqV4b-20" value="" style="endArrow=classic;dashed=1;endFill=1;endSize=12;html=1;rounded=0;entryX=0.5;entryY=1;entryDx=0;entryDy=0;strokeWidth=2;" parent="WIyWlLk6GJQsqaUBKTNV-1" target="0IdplM3Vo_soKw5aqV4b-19" edge="1">
          <mxGeometry width="160" relative="1" as="geometry">
            <mxPoint x="20" y="181" as="sourcePoint" />
            <mxPoint x="280" y="280" as="targetPoint" />
          </mxGeometry>
        </mxCell>
        <mxCell id="0IdplM3Vo_soKw5aqV4b-25" value="Class Player" style="swimlane;fontStyle=1;align=center;verticalAlign=top;childLayout=stackLayout;horizontal=1;startSize=26;horizontalStack=0;resizeParent=1;resizeParentMax=0;resizeLast=0;collapsible=1;marginBottom=0;whiteSpace=wrap;html=1;" parent="WIyWlLk6GJQsqaUBKTNV-1" vertex="1">
          <mxGeometry x="280" y="180" width="280" height="210" as="geometry" />
        </mxCell>
        <mxCell id="0IdplM3Vo_soKw5aqV4b-26" value="- name_: string&lt;div&gt;- field_: Field&lt;br&gt;&lt;/div&gt;&lt;div&gt;- s_: Statistic&lt;/div&gt;&lt;div&gt;&lt;br&gt;&lt;/div&gt;" style="text;strokeColor=none;fillColor=none;align=left;verticalAlign=top;spacingLeft=4;spacingRight=4;overflow=hidden;rotatable=0;points=[[0,0.5],[1,0.5]];portConstraint=eastwest;whiteSpace=wrap;html=1;" parent="0IdplM3Vo_soKw5aqV4b-25" vertex="1">
          <mxGeometry y="26" width="280" height="54" as="geometry" />
        </mxCell>
        <mxCell id="0IdplM3Vo_soKw5aqV4b-27" value="" style="line;strokeWidth=1;fillColor=none;align=left;verticalAlign=middle;spacingTop=-1;spacingLeft=3;spacingRight=3;rotatable=0;labelPosition=right;points=[];portConstraint=eastwest;strokeColor=inherit;" parent="0IdplM3Vo_soKw5aqV4b-25" vertex="1">
          <mxGeometry y="80" width="280" height="9" as="geometry" />
        </mxCell>
        <mxCell id="0IdplM3Vo_soKw5aqV4b-28" value="+ Player (): void&lt;div&gt;+ Player (&lt;b style=&quot;background-color: initial;&quot;&gt;in&lt;/b&gt;&lt;span style=&quot;background-color: initial;&quot;&gt;&amp;nbsp;name: string&lt;/span&gt;&lt;span style=&quot;background-color: initial;&quot;&gt;): void&lt;/span&gt;&lt;/div&gt;&lt;div&gt;+ Get_Stat (&lt;b&gt;out&lt;/b&gt;&amp;nbsp;s_: Statistic): Statistic&lt;/div&gt;&lt;div&gt;+ Get_Field (&lt;b&gt;out&lt;/b&gt;&amp;nbsp;field_: Field): Field&lt;/div&gt;&lt;div&gt;+ Name(&lt;b&gt;out&lt;/b&gt;&amp;nbsp;name_: string): string&lt;/div&gt;&lt;div&gt;+ &amp;amp;Set_Stat (&lt;b&gt;inout&lt;/b&gt;&amp;nbsp;s_: Statistic): Statistic&lt;/div&gt;&lt;div&gt;+ &amp;amp;Set_Field (&lt;b&gt;in&lt;/b&gt;&lt;b style=&quot;background-color: initial;&quot;&gt;out&lt;/b&gt;&lt;span style=&quot;background-color: initial;&quot;&gt;&amp;nbsp;field&lt;/span&gt;&lt;span style=&quot;background-color: initial;&quot;&gt;_: Field&lt;/span&gt;&lt;span style=&quot;background-color: initial;&quot;&gt;): Field&lt;/span&gt;&lt;/div&gt;&lt;div&gt;&lt;span style=&quot;background-color: initial;&quot;&gt;+ Clear (): void&lt;/span&gt;&lt;/div&gt;" style="text;strokeColor=none;fillColor=none;align=left;verticalAlign=top;spacingLeft=4;spacingRight=4;overflow=hidden;rotatable=0;points=[[0,0.5],[1,0.5]];portConstraint=eastwest;whiteSpace=wrap;html=1;" parent="0IdplM3Vo_soKw5aqV4b-25" vertex="1">
          <mxGeometry y="89" width="280" height="121" as="geometry" />
        </mxCell>
        <mxCell id="0IdplM3Vo_soKw5aqV4b-29" value="2" style="endArrow=open;html=1;endSize=12;startArrow=diamondThin;startSize=14;startFill=0;edgeStyle=orthogonalEdgeStyle;align=left;verticalAlign=bottom;rounded=0;exitX=1;exitY=0.5;exitDx=0;exitDy=0;entryX=-0.001;entryY=0.195;entryDx=0;entryDy=0;entryPerimeter=0;" parent="WIyWlLk6GJQsqaUBKTNV-1" source="0IdplM3Vo_soKw5aqV4b-1" target="0IdplM3Vo_soKw5aqV4b-28" edge="1">
          <mxGeometry x="0.6367" y="3" relative="1" as="geometry">
            <mxPoint x="150" y="380" as="sourcePoint" />
            <mxPoint x="310" y="380" as="targetPoint" />
            <Array as="points">
              <mxPoint x="280" y="293" />
            </Array>
            <mxPoint as="offset" />
          </mxGeometry>
        </mxCell>
        <mxCell id="0IdplM3Vo_soKw5aqV4b-30" value="Class Statistic" style="swimlane;fontStyle=1;align=center;verticalAlign=top;childLayout=stackLayout;horizontal=1;startSize=26;horizontalStack=0;resizeParent=1;resizeParentMax=0;resizeLast=0;collapsible=1;marginBottom=0;whiteSpace=wrap;html=1;" parent="WIyWlLk6GJQsqaUBKTNV-1" vertex="1">
          <mxGeometry x="10" y="490" width="330" height="320" as="geometry" />
        </mxCell>
        <mxCell id="0IdplM3Vo_soKw5aqV4b-31" value="- num_all_: int&lt;div&gt;- num_1_: int&lt;br&gt;&lt;/div&gt;&lt;div&gt;- num_2_: int&lt;br&gt;&lt;/div&gt;&lt;div&gt;- num_3_: int&lt;br&gt;&lt;/div&gt;&lt;div&gt;- num_4_: int&lt;br&gt;&lt;/div&gt;&lt;div&gt;- useless_moves_: int&lt;br&gt;&lt;/div&gt;" style="text;strokeColor=none;fillColor=none;align=left;verticalAlign=top;spacingLeft=4;spacingRight=4;overflow=hidden;rotatable=0;points=[[0,0.5],[1,0.5]];portConstraint=eastwest;whiteSpace=wrap;html=1;" parent="0IdplM3Vo_soKw5aqV4b-30" vertex="1">
          <mxGeometry y="26" width="330" height="94" as="geometry" />
        </mxCell>
        <mxCell id="0IdplM3Vo_soKw5aqV4b-32" value="" style="line;strokeWidth=1;fillColor=none;align=left;verticalAlign=middle;spacingTop=-1;spacingLeft=3;spacingRight=3;rotatable=0;labelPosition=right;points=[];portConstraint=eastwest;strokeColor=inherit;" parent="0IdplM3Vo_soKw5aqV4b-30" vertex="1">
          <mxGeometry y="120" width="330" height="9" as="geometry" />
        </mxCell>
        <mxCell id="0IdplM3Vo_soKw5aqV4b-33" value="+ Statistic (): void&lt;div&gt;+ Num_1 (&lt;b&gt;out&lt;/b&gt;&lt;span style=&quot;background-color: initial;&quot;&gt;&amp;nbsp;num_1_: int&lt;/span&gt;&lt;span style=&quot;background-color: initial;&quot;&gt;): int&lt;/span&gt;&lt;/div&gt;&lt;div&gt;+ Num_2 (&lt;b&gt;out&lt;/b&gt;&lt;span style=&quot;background-color: initial;&quot;&gt;&amp;nbsp;num_2_: int&lt;/span&gt;&lt;span style=&quot;background-color: initial;&quot;&gt;): int&lt;/span&gt;&lt;br&gt;&lt;/div&gt;&lt;div&gt;+ Num_3 (&lt;b&gt;out&lt;/b&gt;&lt;span style=&quot;background-color: initial;&quot;&gt;&amp;nbsp;num_3_: int&lt;/span&gt;&lt;span style=&quot;background-color: initial;&quot;&gt;): int&lt;/span&gt;&lt;br&gt;&lt;/div&gt;&lt;div&gt;+ Num_4 (&lt;b&gt;out&lt;/b&gt;&lt;span style=&quot;background-color: initial;&quot;&gt;&amp;nbsp;num_4_: int&lt;/span&gt;&lt;span style=&quot;background-color: initial;&quot;&gt;): int&lt;/span&gt;&lt;br&gt;&lt;/div&gt;&lt;div&gt;+ Num_All (&lt;b&gt;out&lt;/b&gt;&lt;span style=&quot;background-color: initial;&quot;&gt;&amp;nbsp;num_all_: int&lt;/span&gt;&lt;span style=&quot;background-color: initial;&quot;&gt;): int&lt;/span&gt;&lt;br&gt;&lt;/div&gt;&lt;div&gt;+ Add_Ship (&lt;b&gt;in&lt;/b&gt;&lt;span style=&quot;background-color: initial;&quot;&gt;&amp;nbsp;size: int&lt;/span&gt;&lt;span style=&quot;background-color: initial;&quot;&gt;): void&lt;/span&gt;&lt;br&gt;&lt;/div&gt;&lt;div&gt;&lt;span style=&quot;background-color: initial;&quot;&gt;+ Pop_Ship&amp;nbsp;&lt;/span&gt;&lt;span style=&quot;background-color: initial;&quot;&gt;(&lt;/span&gt;&lt;b style=&quot;background-color: initial;&quot;&gt;in&lt;/b&gt;&lt;span style=&quot;background-color: initial;&quot;&gt;&amp;nbsp;size: int&lt;/span&gt;&lt;span style=&quot;background-color: initial;&quot;&gt;): void&lt;/span&gt;&lt;/div&gt;&lt;div&gt;&lt;span style=&quot;background-color: initial;&quot;&gt;+ Clear (): void&lt;/span&gt;&lt;/div&gt;&lt;div&gt;&lt;span style=&quot;background-color: initial;&quot;&gt;+ Add_Useless_Moves (&lt;b&gt;inout &lt;/b&gt;useless_moves_: int): void&lt;/span&gt;&lt;/div&gt;&lt;div&gt;&lt;span style=&quot;background-color: initial;&quot;&gt;+ Useless_Moves (&lt;b&gt;out &lt;/b&gt;useless_moves_: int): int&lt;/span&gt;&lt;/div&gt;&lt;div&gt;&lt;span style=&quot;background-color: initial;&quot;&gt;+ Clear_Useless_Moves (&lt;/span&gt;&lt;b style=&quot;background-color: initial;&quot;&gt;inout&amp;nbsp;&lt;/b&gt;&lt;span style=&quot;background-color: initial;&quot;&gt;useless_moves_: int): void&lt;/span&gt;&lt;span style=&quot;background-color: initial;&quot;&gt;)&lt;/span&gt;&lt;/div&gt;" style="text;strokeColor=none;fillColor=none;align=left;verticalAlign=top;spacingLeft=4;spacingRight=4;overflow=hidden;rotatable=0;points=[[0,0.5],[1,0.5]];portConstraint=eastwest;whiteSpace=wrap;html=1;" parent="0IdplM3Vo_soKw5aqV4b-30" vertex="1">
          <mxGeometry y="129" width="330" height="191" as="geometry" />
        </mxCell>
        <mxCell id="0IdplM3Vo_soKw5aqV4b-34" value="1" style="endArrow=open;html=1;endSize=12;startArrow=diamondThin;startSize=14;startFill=0;align=left;verticalAlign=bottom;rounded=0;exitX=0.268;exitY=1.024;exitDx=0;exitDy=0;exitPerimeter=0;entryX=0.5;entryY=0;entryDx=0;entryDy=0;" parent="WIyWlLk6GJQsqaUBKTNV-1" source="0IdplM3Vo_soKw5aqV4b-28" target="0IdplM3Vo_soKw5aqV4b-30" edge="1">
          <mxGeometry x="0.9623" y="-9" relative="1" as="geometry">
            <mxPoint x="610" y="290" as="sourcePoint" />
            <mxPoint x="770" y="290" as="targetPoint" />
            <mxPoint as="offset" />
          </mxGeometry>
        </mxCell>
        <mxCell id="0IdplM3Vo_soKw5aqV4b-35" value="Class Field" style="swimlane;fontStyle=1;align=center;verticalAlign=top;childLayout=stackLayout;horizontal=1;startSize=26;horizontalStack=0;resizeParent=1;resizeParentMax=0;resizeLast=0;collapsible=1;marginBottom=0;whiteSpace=wrap;html=1;" parent="WIyWlLk6GJQsqaUBKTNV-1" vertex="1">
          <mxGeometry x="430" y="490" width="380" height="280" as="geometry" />
        </mxCell>
        <mxCell id="0IdplM3Vo_soKw5aqV4b-36" value="- matrix_: Cell&lt;div&gt;- fleet_: array &amp;lt;Ship, _Qauntity&amp;gt;&lt;/div&gt;" style="text;strokeColor=none;fillColor=none;align=left;verticalAlign=top;spacingLeft=4;spacingRight=4;overflow=hidden;rotatable=0;points=[[0,0.5],[1,0.5]];portConstraint=eastwest;whiteSpace=wrap;html=1;" parent="0IdplM3Vo_soKw5aqV4b-35" vertex="1">
          <mxGeometry y="26" width="380" height="34" as="geometry" />
        </mxCell>
        <mxCell id="0IdplM3Vo_soKw5aqV4b-37" value="" style="line;strokeWidth=1;fillColor=none;align=left;verticalAlign=middle;spacingTop=-1;spacingLeft=3;spacingRight=3;rotatable=0;labelPosition=right;points=[];portConstraint=eastwest;strokeColor=inherit;" parent="0IdplM3Vo_soKw5aqV4b-35" vertex="1">
          <mxGeometry y="60" width="380" height="9" as="geometry" />
        </mxCell>
        <mxCell id="0IdplM3Vo_soKw5aqV4b-38" value="+ Field (): void&lt;div&gt;+ At_Get (&lt;b&gt;in&lt;/b&gt;&lt;span style=&quot;background-color: initial;&quot;&gt;&amp;nbsp;hor: int, &lt;b&gt;in&lt;/b&gt;&amp;nbsp;vert: int&lt;/span&gt;&lt;span style=&quot;background-color: initial;&quot;&gt;): Cell&lt;/span&gt;&lt;/div&gt;&lt;div&gt;+&amp;nbsp;&lt;span style=&quot;background-color: initial;&quot;&gt;At_Set (&lt;/span&gt;&lt;b style=&quot;background-color: initial;&quot;&gt;in&lt;/b&gt;&lt;span style=&quot;background-color: initial;&quot;&gt;&amp;nbsp;hor: int,&amp;nbsp;&lt;b&gt;in&lt;/b&gt;&amp;nbsp;vert: int&lt;/span&gt;&lt;span style=&quot;background-color: initial;&quot;&gt;): Cell&lt;/span&gt;&lt;br&gt;&lt;/div&gt;&lt;div&gt;+ &amp;amp;At_Set_Ship (&lt;b&gt;in&lt;/b&gt;&lt;span style=&quot;background-color: initial;&quot;&gt;&amp;nbsp;num: int&lt;/span&gt;&lt;span style=&quot;background-color: initial;&quot;&gt;): Ship&lt;/span&gt;&lt;br&gt;&lt;/div&gt;&lt;div&gt;+ At_Get_Ship (&lt;b&gt;in&lt;/b&gt;&lt;span style=&quot;background-color: initial;&quot;&gt;&amp;nbsp;num: int&lt;/span&gt;&lt;span style=&quot;background-color: initial;&quot;&gt;): Ship&lt;/span&gt;&lt;br&gt;&lt;/div&gt;&lt;div&gt;+ Clear (&lt;span style=&quot;background-color: initial;&quot;&gt;): void&lt;/span&gt;&lt;br&gt;&lt;/div&gt;&lt;div&gt;+ Snake (&lt;b&gt;in&lt;/b&gt;&lt;span style=&quot;background-color: initial;&quot;&gt;&amp;nbsp;num: int&lt;/span&gt;&lt;span style=&quot;background-color: initial;&quot;&gt;): void&lt;/span&gt;&lt;br&gt;&lt;/div&gt;&lt;div&gt;&lt;span style=&quot;background-color: initial;&quot;&gt;+ Exam_Position&amp;nbsp;&lt;/span&gt;&lt;span style=&quot;background-color: initial;&quot;&gt;(&lt;/span&gt;&lt;b style=&quot;background-color: initial;&quot;&gt;in&lt;/b&gt;&lt;span style=&quot;background-color: initial;&quot;&gt;&amp;nbsp;row: int,&amp;nbsp;&lt;/span&gt;&lt;b style=&quot;background-color: initial;&quot;&gt;in&lt;/b&gt;&lt;span style=&quot;background-color: initial;&quot;&gt;&amp;nbsp;col: int,&amp;nbsp;&lt;/span&gt;&lt;b style=&quot;background-color: initial;&quot;&gt;in&lt;/b&gt;&lt;span style=&quot;background-color: initial;&quot;&gt;&amp;nbsp;num: int&lt;/span&gt;&lt;span style=&quot;background-color: initial;&quot;&gt;): bool&lt;/span&gt;&lt;/div&gt;&lt;div&gt;&lt;span style=&quot;background-color: initial;&quot;&gt;+ Orientation (&lt;/span&gt;&lt;b style=&quot;background-color: initial;&quot;&gt;in&lt;/b&gt;&lt;span style=&quot;background-color: initial;&quot;&gt;&amp;nbsp;row: int,&amp;nbsp;&lt;/span&gt;&lt;b style=&quot;background-color: initial;&quot;&gt;in&lt;/b&gt;&lt;span style=&quot;background-color: initial;&quot;&gt;&amp;nbsp;col: int,&amp;nbsp;&lt;/span&gt;&lt;b style=&quot;background-color: initial;&quot;&gt;in&lt;/b&gt;&lt;span style=&quot;background-color: initial;&quot;&gt;&amp;nbsp;size: int&lt;/span&gt;&lt;span style=&quot;background-color: initial;&quot;&gt;): char&lt;/span&gt;&lt;/div&gt;&lt;div&gt;&lt;span style=&quot;background-color: initial;&quot;&gt;+ Rotation (&lt;/span&gt;&lt;b style=&quot;background-color: initial;&quot;&gt;in&lt;/b&gt;&lt;span style=&quot;background-color: initial;&quot;&gt;&amp;nbsp;row: int,&amp;nbsp;&lt;/span&gt;&lt;b style=&quot;background-color: initial;&quot;&gt;in&lt;/b&gt;&lt;span style=&quot;background-color: initial;&quot;&gt;&amp;nbsp;col: int,&amp;nbsp;&lt;/span&gt;&lt;b style=&quot;background-color: initial;&quot;&gt;in&lt;/b&gt;&lt;span style=&quot;background-color: initial;&quot;&gt;&amp;nbsp;size: int&lt;/span&gt;&lt;span style=&quot;background-color: initial;&quot;&gt;): void&lt;/span&gt;&lt;/div&gt;&lt;div&gt;&lt;span style=&quot;background-color: initial;&quot;&gt;+ Exam_Turn_Down (&lt;/span&gt;&lt;b style=&quot;background-color: initial;&quot;&gt;in&lt;/b&gt;&lt;span style=&quot;background-color: initial;&quot;&gt;&amp;nbsp;row: int,&amp;nbsp;&lt;/span&gt;&lt;b style=&quot;background-color: initial;&quot;&gt;in&lt;/b&gt;&lt;span style=&quot;background-color: initial;&quot;&gt;&amp;nbsp;col: int,&amp;nbsp;&lt;/span&gt;&lt;b style=&quot;background-color: initial;&quot;&gt;in&lt;/b&gt;&lt;span style=&quot;background-color: initial;&quot;&gt;&amp;nbsp;size: int&lt;/span&gt;&lt;span style=&quot;background-color: initial;&quot;&gt;): bool&lt;/span&gt;&lt;/div&gt;&lt;div&gt;&lt;span style=&quot;background-color: initial;&quot;&gt;+ Exam_Turn_Left (&lt;/span&gt;&lt;b style=&quot;background-color: initial;&quot;&gt;in&lt;/b&gt;&lt;span style=&quot;background-color: initial;&quot;&gt;&amp;nbsp;row: int,&amp;nbsp;&lt;/span&gt;&lt;b style=&quot;background-color: initial;&quot;&gt;in&lt;/b&gt;&lt;span style=&quot;background-color: initial;&quot;&gt;&amp;nbsp;col: int,&amp;nbsp;&lt;/span&gt;&lt;b style=&quot;background-color: initial;&quot;&gt;in&lt;/b&gt;&lt;span style=&quot;background-color: initial;&quot;&gt;&amp;nbsp;size: int&lt;/span&gt;&lt;span style=&quot;background-color: initial;&quot;&gt;): bool&lt;/span&gt;&lt;br&gt;&lt;/div&gt;&lt;div&gt;&lt;span style=&quot;background-color: initial;&quot;&gt;+ Exam_Turn_Up (&lt;/span&gt;&lt;b style=&quot;background-color: initial;&quot;&gt;in&lt;/b&gt;&lt;span style=&quot;background-color: initial;&quot;&gt;&amp;nbsp;row: int,&amp;nbsp;&lt;/span&gt;&lt;b style=&quot;background-color: initial;&quot;&gt;in&lt;/b&gt;&lt;span style=&quot;background-color: initial;&quot;&gt;&amp;nbsp;col: int,&amp;nbsp;&lt;/span&gt;&lt;b style=&quot;background-color: initial;&quot;&gt;in&lt;/b&gt;&lt;span style=&quot;background-color: initial;&quot;&gt;&amp;nbsp;size: int&lt;/span&gt;&lt;span style=&quot;background-color: initial;&quot;&gt;): bool&lt;/span&gt;&lt;span style=&quot;background-color: initial;&quot;&gt;&lt;br&gt;&lt;/span&gt;&lt;/div&gt;&lt;div&gt;&lt;span style=&quot;background-color: initial;&quot;&gt;+ Exam_Turn_Right (&lt;/span&gt;&lt;b style=&quot;background-color: initial;&quot;&gt;in&lt;/b&gt;&lt;span style=&quot;background-color: initial;&quot;&gt;&amp;nbsp;row: int,&amp;nbsp;&lt;/span&gt;&lt;b style=&quot;background-color: initial;&quot;&gt;in&lt;/b&gt;&lt;span style=&quot;background-color: initial;&quot;&gt;&amp;nbsp;col: int,&amp;nbsp;&lt;/span&gt;&lt;b style=&quot;background-color: initial;&quot;&gt;in&lt;/b&gt;&lt;span style=&quot;background-color: initial;&quot;&gt;&amp;nbsp;size: int&lt;/span&gt;&lt;span style=&quot;background-color: initial;&quot;&gt;): bool&lt;/span&gt;&lt;span style=&quot;background-color: initial;&quot;&gt;&lt;br&gt;&lt;/span&gt;&lt;/div&gt;" style="text;strokeColor=none;fillColor=none;align=left;verticalAlign=top;spacingLeft=4;spacingRight=4;overflow=hidden;rotatable=0;points=[[0,0.5],[1,0.5]];portConstraint=eastwest;whiteSpace=wrap;html=1;" parent="0IdplM3Vo_soKw5aqV4b-35" vertex="1">
          <mxGeometry y="69" width="380" height="211" as="geometry" />
        </mxCell>
        <mxCell id="0IdplM3Vo_soKw5aqV4b-39" value="1" style="endArrow=open;html=1;endSize=12;startArrow=diamondThin;startSize=14;startFill=0;align=left;verticalAlign=bottom;rounded=0;exitX=0.52;exitY=1.003;exitDx=0;exitDy=0;exitPerimeter=0;" parent="WIyWlLk6GJQsqaUBKTNV-1" source="0IdplM3Vo_soKw5aqV4b-28" edge="1">
          <mxGeometry x="0.8534" y="6" relative="1" as="geometry">
            <mxPoint x="290" y="600" as="sourcePoint" />
            <mxPoint x="580" y="485" as="targetPoint" />
            <mxPoint as="offset" />
          </mxGeometry>
        </mxCell>
        <mxCell id="0IdplM3Vo_soKw5aqV4b-40" value="Class Cell" style="swimlane;fontStyle=1;align=center;verticalAlign=top;childLayout=stackLayout;horizontal=1;startSize=26;horizontalStack=0;resizeParent=1;resizeParentMax=0;resizeLast=0;collapsible=1;marginBottom=0;whiteSpace=wrap;html=1;" parent="WIyWlLk6GJQsqaUBKTNV-1" vertex="1">
          <mxGeometry x="270" y="889" width="240" height="240" as="geometry" />
        </mxCell>
        <mxCell id="0IdplM3Vo_soKw5aqV4b-41" value="- num_ship_: int&lt;div&gt;- hor_: int&lt;/div&gt;&lt;div&gt;- vert_: char&lt;/div&gt;&lt;div&gt;- state_: char&lt;/div&gt;" style="text;strokeColor=none;fillColor=none;align=left;verticalAlign=top;spacingLeft=4;spacingRight=4;overflow=hidden;rotatable=0;points=[[0,0.5],[1,0.5]];portConstraint=eastwest;whiteSpace=wrap;html=1;" parent="0IdplM3Vo_soKw5aqV4b-40" vertex="1">
          <mxGeometry y="26" width="240" height="64" as="geometry" />
        </mxCell>
        <mxCell id="0IdplM3Vo_soKw5aqV4b-42" value="" style="line;strokeWidth=1;fillColor=none;align=left;verticalAlign=middle;spacingTop=-1;spacingLeft=3;spacingRight=3;rotatable=0;labelPosition=right;points=[];portConstraint=eastwest;strokeColor=inherit;" parent="0IdplM3Vo_soKw5aqV4b-40" vertex="1">
          <mxGeometry y="90" width="240" height="9" as="geometry" />
        </mxCell>
        <mxCell id="0IdplM3Vo_soKw5aqV4b-43" value="+ Cell (): void&lt;div&gt;+ State (&lt;b&gt;in&lt;/b&gt;&lt;span style=&quot;background-color: initial;&quot;&gt;&amp;nbsp;state: char&lt;/span&gt;&lt;span style=&quot;background-color: initial;&quot;&gt;): void&lt;/span&gt;&lt;/div&gt;&lt;div&gt;+ Vert&lt;span style=&quot;background-color: initial;&quot;&gt;&amp;nbsp;(&lt;/span&gt;&lt;b style=&quot;background-color: initial;&quot;&gt;in&lt;/b&gt;&lt;span style=&quot;background-color: initial;&quot;&gt;&amp;nbsp;vert: char&lt;/span&gt;&lt;span style=&quot;background-color: initial;&quot;&gt;): void&lt;/span&gt;&lt;br&gt;&lt;/div&gt;&lt;div&gt;+ Hor (&lt;b&gt;in&lt;/b&gt;&lt;span style=&quot;background-color: initial;&quot;&gt;&amp;nbsp;hor: int&lt;/span&gt;&lt;span style=&quot;background-color: initial;&quot;&gt;): void&lt;/span&gt;&lt;br&gt;&lt;/div&gt;&lt;div&gt;+ State (&lt;b&gt;out&lt;/b&gt;&amp;nbsp;state_: char&lt;span style=&quot;background-color: initial;&quot;&gt;): char&lt;/span&gt;&lt;br&gt;&lt;/div&gt;&lt;div&gt;+ Hor (&lt;b&gt;out&lt;/b&gt; hor_: int&lt;span style=&quot;background-color: initial;&quot;&gt;): int&lt;/span&gt;&lt;br&gt;&lt;/div&gt;&lt;div&gt;+ Vert (&lt;b&gt;out&lt;/b&gt;&lt;span style=&quot;background-color: initial;&quot;&gt;&amp;nbsp;vert_: char&lt;/span&gt;&lt;span style=&quot;background-color: initial;&quot;&gt;): char&lt;/span&gt;&lt;br&gt;&lt;/div&gt;&lt;div&gt;&lt;span style=&quot;background-color: initial;&quot;&gt;+ Num_Ship&amp;nbsp;&lt;/span&gt;&lt;span style=&quot;background-color: initial;&quot;&gt;(&lt;b&gt;out&lt;/b&gt;&lt;/span&gt;&lt;span style=&quot;background-color: initial;&quot;&gt;&amp;nbsp;num_ship_&lt;/span&gt;&lt;span style=&quot;background-color: initial;&quot;&gt;: int&lt;/span&gt;&lt;span style=&quot;background-color: initial;&quot;&gt;): int&lt;/span&gt;&lt;/div&gt;&lt;div&gt;&lt;span style=&quot;background-color: initial;&quot;&gt;+ Set_Num_Ship (&lt;/span&gt;&lt;b style=&quot;background-color: initial;&quot;&gt;in&lt;/b&gt;&lt;span style=&quot;background-color: initial;&quot;&gt;&amp;nbsp;num:&lt;/span&gt;&lt;span style=&quot;background-color: initial;&quot;&gt;&amp;nbsp;int&lt;/span&gt;&lt;span style=&quot;background-color: initial;&quot;&gt;): void&lt;/span&gt;&lt;/div&gt;" style="text;strokeColor=none;fillColor=none;align=left;verticalAlign=top;spacingLeft=4;spacingRight=4;overflow=hidden;rotatable=0;points=[[0,0.5],[1,0.5]];portConstraint=eastwest;whiteSpace=wrap;html=1;" parent="0IdplM3Vo_soKw5aqV4b-40" vertex="1">
          <mxGeometry y="99" width="240" height="141" as="geometry" />
        </mxCell>
        <mxCell id="0IdplM3Vo_soKw5aqV4b-44" value="_SIZE * _SIZE" style="endArrow=open;html=1;endSize=12;startArrow=diamondThin;startSize=14;startFill=0;align=left;verticalAlign=bottom;rounded=0;entryX=0.5;entryY=0;entryDx=0;entryDy=0;exitX=0.325;exitY=1.003;exitDx=0;exitDy=0;exitPerimeter=0;" parent="WIyWlLk6GJQsqaUBKTNV-1" source="0IdplM3Vo_soKw5aqV4b-38" target="0IdplM3Vo_soKw5aqV4b-40" edge="1">
          <mxGeometry x="0.5208" y="21" relative="1" as="geometry">
            <mxPoint x="530" y="780" as="sourcePoint" />
            <mxPoint x="420" y="970" as="targetPoint" />
            <mxPoint x="-1" as="offset" />
          </mxGeometry>
        </mxCell>
        <mxCell id="0IdplM3Vo_soKw5aqV4b-45" value="Class Ship" style="swimlane;fontStyle=1;align=center;verticalAlign=top;childLayout=stackLayout;horizontal=1;startSize=26;horizontalStack=0;resizeParent=1;resizeParentMax=0;resizeLast=0;collapsible=1;marginBottom=0;whiteSpace=wrap;html=1;" parent="WIyWlLk6GJQsqaUBKTNV-1" vertex="1">
          <mxGeometry x="650" y="890" width="380" height="280" as="geometry" />
        </mxCell>
        <mxCell id="0IdplM3Vo_soKw5aqV4b-46" value="- size_: int&lt;div&gt;- capasity_: int&lt;/div&gt;&lt;div&gt;- vector_: char&lt;/div&gt;&lt;div&gt;- state_: char&lt;/div&gt;&lt;div&gt;- point_: *Cell&lt;/div&gt;" style="text;strokeColor=none;fillColor=none;align=left;verticalAlign=top;spacingLeft=4;spacingRight=4;overflow=hidden;rotatable=0;points=[[0,0.5],[1,0.5]];portConstraint=eastwest;whiteSpace=wrap;html=1;" parent="0IdplM3Vo_soKw5aqV4b-45" vertex="1">
          <mxGeometry y="26" width="380" height="74" as="geometry" />
        </mxCell>
        <mxCell id="0IdplM3Vo_soKw5aqV4b-47" value="" style="line;strokeWidth=1;fillColor=none;align=left;verticalAlign=middle;spacingTop=-1;spacingLeft=3;spacingRight=3;rotatable=0;labelPosition=right;points=[];portConstraint=eastwest;strokeColor=inherit;" parent="0IdplM3Vo_soKw5aqV4b-45" vertex="1">
          <mxGeometry y="100" width="380" height="9" as="geometry" />
        </mxCell>
        <mxCell id="0IdplM3Vo_soKw5aqV4b-48" value="+ Ship (): void&lt;div&gt;+ Size (&lt;b&gt;in&lt;/b&gt;&lt;span style=&quot;background-color: initial;&quot;&gt;&amp;nbsp;state: char&lt;/span&gt;&lt;span style=&quot;background-color: initial;&quot;&gt;): void&lt;/span&gt;&lt;/div&gt;&lt;div&gt;+ Vector&lt;span style=&quot;background-color: initial;&quot;&gt;&amp;nbsp;(&lt;/span&gt;&lt;b style=&quot;background-color: initial;&quot;&gt;in&lt;/b&gt;&lt;span style=&quot;background-color: initial;&quot;&gt;&amp;nbsp;vector: char&lt;/span&gt;&lt;span style=&quot;background-color: initial;&quot;&gt;): void&lt;/span&gt;&lt;br&gt;&lt;/div&gt;&lt;div&gt;+ Point (&lt;b&gt;in&lt;/b&gt;&lt;span style=&quot;background-color: initial;&quot;&gt;&amp;nbsp;point: *Cell&lt;/span&gt;&lt;span style=&quot;background-color: initial;&quot;&gt;): void&lt;/span&gt;&lt;br&gt;&lt;/div&gt;&lt;div&gt;+ State (&lt;b&gt;in&lt;/b&gt;&amp;nbsp;state_: char&lt;span style=&quot;background-color: initial;&quot;&gt;): void&lt;/span&gt;&lt;br&gt;&lt;/div&gt;&lt;div&gt;+ Size (&lt;b&gt;out&lt;/b&gt;&amp;nbsp;size_: int&lt;span style=&quot;background-color: initial;&quot;&gt;): int&lt;/span&gt;&lt;br&gt;&lt;/div&gt;&lt;div&gt;+ Vector (&lt;b&gt;out&lt;/b&gt;&lt;span style=&quot;background-color: initial;&quot;&gt;&amp;nbsp;vector_: char&lt;/span&gt;&lt;span style=&quot;background-color: initial;&quot;&gt;): char&lt;/span&gt;&lt;br&gt;&lt;/div&gt;&lt;div&gt;&lt;span style=&quot;background-color: initial;&quot;&gt;+ Point&amp;nbsp;&lt;/span&gt;&lt;span style=&quot;background-color: initial;&quot;&gt;(&lt;b&gt;out&lt;/b&gt;&lt;/span&gt;&lt;span style=&quot;background-color: initial;&quot;&gt;&amp;nbsp;point_&lt;/span&gt;&lt;span style=&quot;background-color: initial;&quot;&gt;: *Cell&lt;/span&gt;&lt;span style=&quot;background-color: initial;&quot;&gt;): *Cell&lt;/span&gt;&lt;/div&gt;&lt;div&gt;&lt;span style=&quot;background-color: initial;&quot;&gt;+ State (&lt;b&gt;out&lt;/b&gt;&lt;/span&gt;&lt;span style=&quot;background-color: initial;&quot;&gt;&amp;nbsp;state_:&lt;/span&gt;&lt;span style=&quot;background-color: initial;&quot;&gt;&amp;nbsp;char&lt;/span&gt;&lt;span style=&quot;background-color: initial;&quot;&gt;): char&lt;/span&gt;&lt;/div&gt;&lt;div&gt;&lt;span style=&quot;background-color: initial;&quot;&gt;+ Capacity (&lt;b&gt;out&lt;/b&gt;&amp;nbsp;capasity_: int): int&lt;/span&gt;&lt;/div&gt;&lt;div&gt;&lt;span style=&quot;background-color: initial;&quot;&gt;+ Change_Capacity (): void&lt;/span&gt;&lt;/div&gt;" style="text;strokeColor=none;fillColor=none;align=left;verticalAlign=top;spacingLeft=4;spacingRight=4;overflow=hidden;rotatable=0;points=[[0,0.5],[1,0.5]];portConstraint=eastwest;whiteSpace=wrap;html=1;" parent="0IdplM3Vo_soKw5aqV4b-45" vertex="1">
          <mxGeometry y="109" width="380" height="171" as="geometry" />
        </mxCell>
        <mxCell id="0IdplM3Vo_soKw5aqV4b-49" value="_QAUNTITY" style="endArrow=open;html=1;endSize=12;startArrow=diamondThin;startSize=14;startFill=0;align=left;verticalAlign=bottom;rounded=0;exitX=0.513;exitY=0.993;exitDx=0;exitDy=0;exitPerimeter=0;entryX=0.395;entryY=-0.002;entryDx=0;entryDy=0;entryPerimeter=0;" parent="WIyWlLk6GJQsqaUBKTNV-1" source="0IdplM3Vo_soKw5aqV4b-38" target="0IdplM3Vo_soKw5aqV4b-45" edge="1">
          <mxGeometry x="0.8177" y="10" relative="1" as="geometry">
            <mxPoint x="560" y="960" as="sourcePoint" />
            <mxPoint x="720" y="960" as="targetPoint" />
            <mxPoint as="offset" />
          </mxGeometry>
        </mxCell>
      </root>
    </mxGraphModel>
  </diagram>
</mxfile>
